<?xml version="1.0" standalone="no"?>
<!DOCTYPE svg PUBLIC "-//W3C//DTD SVG 20010904//EN"
 "http://www.w3.org/TR/2001/REC-SVG-20010904/DTD/svg10.dtd">
<svg version="1.0" xmlns="http://www.w3.org/2000/svg"
 width="80.000000pt" height="70.000000pt" viewBox="0 0 1024.000000 1024.000000"
 preserveAspectRatio="xMidYMid meet">

<g transform="translate(0.000000,1024.000000) scale(0.100000,-0.100000)"
fill="#000000" stroke="none">
<path d="M5390 6863 c-113 -39 -184 -123 -220 -258 -32 -119 -553 -1952 -681
-2395 -102 -357 -110 -390 -105 -448 7 -81 33 -139 91 -201 136 -145 396 -129
515 32 37 50 33 37 264 852 570 2010 580 2046 579 2119 -2 129 -88 250 -209
296 -66 24 -169 26 -234 3z m228 -99 c63 -32 107 -88 123 -161 14 -62 30 6
-166 -688 -59 -209 -222 -785 -361 -1280 -140 -495 -261 -919 -270 -942 -19
-52 -87 -115 -142 -131 -101 -30 -223 1 -277 72 -30 40 -55 108 -55 151 0 17
18 95 41 171 101 347 627 2193 703 2469 30 110 59 212 64 226 46 118 215 175
340 113z"/>
<path d="M3779 6707 c-25 -7 -64 -24 -87 -38 -56 -33 -1309 -1274 -1332 -1318
-49 -98 -47 -226 7 -328 28 -53 36 -60 991 -991 348 -339 363 -350 478 -360
247 -19 431 220 350 458 -17 50 -39 75 -225 261 -113 113 -343 339 -511 502
l-305 297 145 142 c949 932 914 893 914 1043 0 93 -27 165 -89 234 -78 86
-225 129 -336 98z m210 -113 c92 -50 143 -163 121 -268 -6 -28 -18 -63 -28
-77 -9 -15 -251 -256 -537 -537 -286 -281 -521 -515 -523 -520 -1 -4 125 -132
280 -282 616 -597 779 -761 795 -798 8 -20 16 -65 16 -98 2 -153 -120 -265
-272 -251 -32 2 -72 12 -90 22 -18 9 -157 139 -309 289 -153 150 -438 429
-635 622 -394 385 -393 384 -391 501 1 45 7 74 25 106 16 29 239 256 645 657
342 336 632 619 644 627 72 51 175 53 259 7z"/>
<path d="M6264 6700 c-82 -27 -153 -91 -195 -175 -29 -59 -31 -70 -28 -152 6
-150 -2 -139 483 -613 234 -228 423 -416 421 -418 -1 -2 -32 2 -66 9 -93 17
-298 15 -400 -5 -184 -35 -363 -115 -496 -221 -336 -269 -360 -713 -52 -1000
64 -60 152 -123 202 -146 25 -11 27 -17 27 -68 -1 -71 -14 -131 -47 -205 -20
-43 -24 -62 -16 -75 38 -60 307 31 457 155 l69 57 108 3 c492 12 881 303 923
689 6 53 -4 163 -20 221 -4 16 16 39 105 118 61 54 119 114 130 132 58 99 65
240 16 339 -20 43 -144 170 -666 684 -520 511 -652 636 -696 658 -74 36 -174
41 -259 13z m226 -95 c19 -10 321 -301 672 -647 626 -618 638 -631 654 -686
20 -67 14 -143 -15 -200 -11 -23 -66 -81 -128 -137 -152 -137 -145 -126 -127
-183 24 -78 28 -179 10 -262 -26 -122 -66 -193 -170 -295 -75 -75 -108 -100
-192 -142 -162 -84 -351 -127 -532 -122 l-73 2 -47 -46 c-61 -59 -178 -131
-259 -158 -35 -11 -66 -19 -68 -17 -2 2 3 26 11 53 22 72 31 230 14 251 -8 8
-39 28 -70 44 -251 127 -401 388 -360 628 24 145 127 299 264 396 295 209 708
250 1051 105 66 -29 70 -29 83 -12 13 16 -33 65 -517 543 -364 361 -535 537
-546 563 -19 47 -19 147 1 195 21 51 70 100 129 129 41 20 61 23 115 20 36 -2
81 -12 100 -22z"/>
</g>
</svg>
